<?xml version="1.0" encoding="UTF-8"?>
<svg id="Layer_1" data-name="Layer 1" xmlns="http://www.w3.org/2000/svg" viewBox="0 0 390.63 480.51">
  <defs>
    <style>
      .cls-1 {
        fill: #4d008c;
      }
    </style>
  </defs>
  <g>
    <path class="cls-1" d="M220.03,337.58c-3.26,12.73-6.66,29.03,5.38,37.46,6.61-10.19,11.16-33.61,11.16-33.61,7.26,9.13,8.44,18.73,7.97,31.61h0c18.64-18.6,12.38-47.08-6.11-63.22,1.81,4.26,2.4,9.01,2.36,12.87-5.2-8.83-12.25-16.08-19.11-21.68-3.26-2.67-6.48-4.96-9.43-6.86,8.65,17.12,11.55,28.74,7.79,43.43Z"/>
    <path class="cls-1" d="M148.18,226.65s.56,.22,1.35,.62c1.15,.58,2.8,1.56,4,2.82-.15-5.2,.44-10.01,1.66-14.4,3.91-14.12,14.29-23.84,27.31-28.2,4.5-1.51,9.3-2.38,14.27-2.57-8.27-4.38-19.86-4.44-30.02-1.4-.53,.16-1.06,.33-1.59,.51-.77,.26-1.53,.53-2.28,.83-.78,.31-1.53,.63-2.28,.98-.84,.39-1.67,.8-2.47,1.23-.91,.49-1.8,1.01-2.64,1.56-.08,.05-.16,.1-.24,.15-.77,.51-1.51,1.04-2.22,1.59l8.13-.16c-1.43,.8-2.81,1.69-4.16,2.67-.45,.33-.89,.66-1.33,1.01-8.12,6.43-14.51,16.08-18.76,26.57-2.15,5.32-3.75,10.85-4.74,16.29,0,0,1.33,.65,4.7-1.46,.32-.2,.65-.42,1-.67,0,.02,0,.03-.01,.05-.09,.37-.18,.74-.27,1.12-.03,.14-.06,.28-.09,.42-.06,.26-.11,.52-.17,.79-.03,.17-.07,.34-.1,.51-.05,.24-.09,.49-.14,.74-.03,.19-.06,.37-.09,.56-.04,.24-.08,.49-.11,.73-.03,.2-.06,.4-.09,.6-.03,.24-.06,.49-.1,.74-.03,.21-.05,.41-.08,.62-.03,.26-.05,.52-.08,.78-.02,.21-.04,.42-.06,.63-.03,.39-.06,.78-.09,1.18-.02,.32-.04,.64-.06,.97-.01,.23-.03,.47-.04,.71-.01,.28-.02,.57-.03,.85,0,.22-.01,.45-.02,.68,0,.3,0,.61-.01,.91,0,.22,0,.44,0,.66,0,.32,0,.65,.01,.98,0,.21,0,.42,.01,.63,0,.35,.02,.7,.03,1.05,0,.18,.02,.37,.03,.56,.02,.39,.04,.78,.06,1.18,0,.07,0,.14,.01,.21,.09,1.5,.23,3.07,.42,4.71,.01,.11,.02,.21,.04,.32,.06,.48,.12,.96,.18,1.45,.02,.16,.04,.32,.06,.48,.07,.48,.14,.97,.21,1.46,.02,.17,.05,.33,.08,.5,.08,.5,.16,1.02,.24,1.53,.02,.14,.05,.29,.07,.43,.09,.55,.19,1.11,.3,1.68,0,.05,.02,.11,.03,.16,.48,2.6,1.08,5.34,1.79,8.24,.02,.08,.04,.16,.06,.24,.16,.65,.33,1.31,.5,1.97,.04,.14,.07,.29,.11,.43,.17,.65,.35,1.31,.53,1.97,.04,.15,.08,.31,.13,.46,.19,.68,.38,1.37,.59,2.07,.03,.1,.06,.21,.09,.32,.93,3.19,1.99,6.55,3.2,10.09,0,0,0,.01,0,.02,1.5,4.41,3.23,9.08,5.21,14.07,0,0,.2-11.63,.87-22.09,.04-.61,.08-1.21,.12-1.81,0-.09,.01-.18,.02-.27,.04-.58,.08-1.16,.13-1.72,0-.04,0-.08,0-.12,.47,.64,.92,1.3,1.37,1.96,9.28,13.9,12.23,32.23,13.6,54.03h0c.22,3.53,.4,7.15,.56,10.85,0,.19,.02,.39,.02,.58,.05,1.13,.1,2.27,.14,3.42,0,.04,0,.08,0,.12,.01-.03,.02-.06,.04-.09,.44-1.06,.86-2.1,1.27-3.14,.13-.34,.25-.67,.38-1,.28-.73,.55-1.46,.82-2.18,.14-.38,.26-.75,.4-1.13,.24-.68,.47-1.35,.69-2.02,.13-.38,.25-.76,.37-1.14,.21-.66,.42-1.32,.61-1.98,.11-.36,.22-.73,.32-1.09,.19-.68,.38-1.35,.56-2.03,.09-.33,.18-.65,.26-.98,.19-.74,.36-1.47,.53-2.19,.06-.25,.12-.51,.18-.76,.2-.93,.39-1.85,.56-2.76,0-.05,.02-.1,.03-.15,4.02-21.57-1-39.7-12.76-59.36-6.36-10.64-15.23-22.02-13.14-42.4Z"/>
    <polygon class="cls-1" points="145.43 102.81 149.61 102.81 147.52 97.61 145.43 102.81"/>
    <polygon class="cls-1" points="236.57 102.81 240.75 102.81 238.66 97.61 236.57 102.81"/>
    <path class="cls-1" d="M216.27,96.78h-2.9v8.92h2.9c2.76,0,4.62-1.65,4.62-4.46s-1.86-4.46-4.62-4.46Z"/>
    <path class="cls-1" d="M195.84,102.74h-3.85v3.3h3.85c1.58,0,2.41-.53,2.41-1.65s-.84-1.65-2.41-1.65Z"/>
    <path class="cls-1" d="M197.46,97.98c0-1.02-.79-1.56-2.32-1.56h-3.16v3.13h3.16c1.53,0,2.32-.53,2.32-1.58Z"/>
    <path class="cls-1" d="M324.87,75.01H65.77v52.25H324.87v-52.25Zm-237.17,30.1h-2.83v4.25h-4.6v-16.25h7.43c4.43,0,7.22,2.3,7.22,6.01s-2.79,5.99-7.22,5.99Zm17.53,4.25h-4.6v-16.25h4.6v16.25Zm29.35,0h-12.35v-16.25h4.6v12.61h7.75v3.65Zm17.65,0l-1.28-3.16h-6.87l-1.28,3.16h-4.69l7.17-16.25h4.53l7.2,16.25h-4.78Zm24.24,0l-.05-8.61-4.18,7.01h-2.04l-4.16-6.78v8.38h-4.25v-16.25h3.78l5.71,9.38,5.57-9.38h3.78l.05,16.25h-4.23Zm19.74,0h-8.78v-16.25h8.31c4.27,0,6.36,1.74,6.36,4.25,0,1.56-.79,2.81-2.18,3.53,1.83,.65,2.97,2.04,2.97,4.02,0,2.81-2.32,4.46-6.69,4.46Zm20.25,0h-7.68v-16.25h7.68c5.39,0,9.08,3.13,9.08,8.13s-3.69,8.13-9.08,8.13Zm26.91,0l-1.28-3.16h-6.87l-1.28,3.16h-4.69l7.18-16.25h4.53l7.2,16.25h-4.78Zm27.24-4.25h-2.83v4.25h-4.6v-16.25h7.43c4.44,0,7.22,2.3,7.22,6.01s-2.79,5.99-7.22,5.99Zm28.4,4.25h-4.6v-6.34h-6.27v6.34h-4.6v-16.25h4.6v6.11h6.27v-6.11h4.6v16.25Zm11.33,0h-4.6v-16.25h4.6v16.25Z"/>
    <path class="cls-1" d="M270.33,96.73h-2.55v4.76h2.55c1.9,0,2.86-.88,2.86-2.37s-.95-2.39-2.86-2.39Z"/>
    <path class="cls-1" d="M87.42,96.73h-2.55v4.76h2.55c1.9,0,2.86-.88,2.86-2.37s-.95-2.39-2.86-2.39Z"/>
    <path class="cls-1" d="M47.63,398.67l147.69,81.85,147.69-81.81V57.59H47.63V398.67ZM58.51,68.48H332.13V392.29l-136.81,75.78L58.51,392.25V68.48Z"/>
    <path class="cls-1" d="M250.83,221.35s1.08,1.21,1.88,2.96h0c.13,.29,.25,.6,.36,.91,.02,.05,.03,.09,.05,.13,.04,.11,.07,.22,.1,.33,.03,.09,.05,.18,.08,.28,.03,.1,.05,.2,.07,.31,.02,.11,.04,.22,.06,.33,.02,.1,.03,.2,.04,.29,.02,.12,.03,.24,.03,.37,0,.09,.01,.18,.02,.28,0,.14,0,.28,0,.42,0,.08,0,.16,0,.24-.02,.21-.04,.42-.08,.63,0,0,0,.02,0,.03,0,0,.07-.04,.18-.11,.81-.53,3.98-2.93,3.2-7.16l-.43-1.43-.12-.41-1.11-3.68s-3.99-1.48-9.53-2.17c-1.79-.22-6.45,1.68-6.45,1.68,1.82,3.87,3.99,5.44,11.68,5.78Z"/>
    <path class="cls-1" d="M324.87,388.01V134.25l-259.1-.05v253.78l108.64,60.21,20.91,11.59,129.55-71.76Zm-63.55-174.86s.02,.03,.03,.04c.13,.14,.27,.29,.39,.43,.09,.1,.17,.19,.25,.28,.12,.14,.23,.27,.35,.41,.07,.09,.14,.18,.21,.26,.12,.15,.23,.29,.33,.43,.04,.06,.09,.11,.12,.17,.13,.18,.24,.35,.35,.52,.03,.04,.05,.08,.07,.12,.1,.18,.2,.35,.27,.51,0,0,0,0,0,0,0,0,14.1,4.07,23.99,10.56,3.3,2.16,6.12,4.6,7.8,7.24,0,0-1.52-.84-3.9-1.78-.59-.23-1.22-.46-1.9-.69,0,0-.01,0-.02,0-.37-.12-.75-.25-1.15-.37-.33-.1-.66-.19-1-.29-1.04-.28-2.13-.53-3.26-.72-.31-.05-.61-.1-.92-.14-.93-.12-1.88-.2-2.83-.22-.51,0-1.02,0-1.53,.03,0,0,10.86,6.54,10.9,12.23l-1.42,5.14s-21.71,15.55-48.36,16.66c0,0-4.8-7.71-2.03-18.32-.74,.13-1.49,.29-2.23,.47,0,0-.01,0-.02,0h0c-5.31,1.3-10.66,3.91-14.3,7.98,0,0-1.31-7.06,.98-13.94-5.31-.61-10.25,.27-14.68,3.86,.77-11.11,4.8-24.48,12.37-34.2-1.61-.79-12.55,.42-12.82,3.5,0,0-.52,2.23-.05,4.83,0,0-1.5-.94-2.98-2.73-.17-.2-.33-.42-.5-.64-.02-.03-.04-.05-.06-.08-.15-.21-.3-.44-.45-.67-.03-.05-.06-.09-.09-.14-.13-.22-.26-.44-.38-.67-.04-.07-.08-.14-.12-.21-.11-.21-.21-.44-.31-.66-.05-.1-.1-.2-.14-.3-.09-.21-.16-.43-.23-.65-.04-.13-.1-.25-.14-.39-.06-.21-.11-.43-.16-.65-.04-.15-.08-.3-.11-.46-.04-.22-.06-.44-.09-.67-.02-.17-.06-.34-.07-.52-.02-.25-.02-.51-.02-.77,0-.16-.02-.32-.01-.48h0c-.01-.05,0-.11,0-.17,0-.01,0-.02,0-.03,.02-.06,.06-.12,.11-.18,0-.01,.02-.03,.03-.04,.06-.07,.12-.13,.21-.2,0,0,.02-.01,.02-.02,.09-.07,.19-.14,.3-.21,.01-.01,.03-.02,.04-.03,.12-.07,.25-.15,.4-.23,.03-.01,.05-.03,.08-.04,.15-.08,.32-.16,.5-.24,.02,0,.04-.02,.05-.02,.19-.09,.39-.17,.61-.26,0,0,.02,0,.02,0,.22-.09,.45-.18,.7-.27,.03-.01,.06-.02,.09-.03,.25-.09,.51-.18,.78-.27,.02,0,.05-.02,.07-.02,.57-.19,1.2-.37,1.88-.56,.02,0,.05-.01,.07-.02,.34-.09,.69-.18,1.05-.27,.03,0,.06-.01,.08-.02,.75-.18,1.54-.36,2.38-.52,.02,0,.03,0,.05,0,.41-.08,.83-.16,1.26-.24l.13-.02c.43-.08,.87-.15,1.33-.22,10.48-1.63,26.26-1.74,41.76,4.51,0,0,3.35,2.71,5.82,5.35Zm18.43,66.6c-.24-1.45-.77-2.6-1.51-3.54-1.86,2.06-3.77,3.62-5.34,4.69,0,0-7.05-8.53-13.1-12.28,9.23-2.87,18.13-7.55,26.01-13.06,0,.19,0,.38,0,.57l.35-.45s5.04,12.16-6.43,24.08Zm-181.02,60.89c-.34-12.61,4.21-26.02,13.23-33.86,0,0,.01,.02,.02,.02,15.61,8.81,30.12,44.95,30.12,59.78l-43.37-25.94Zm79.13,36.74c-.91,1.91-1.42,4.36-.94,7.44l-16.45-9.5-5.48-3.17c-.1-.66-.21-1.33-.33-2.01-.06-.35-.13-.69-.19-1.04-.06-.33-.12-.65-.18-.98-.11-.58-.23-1.17-.36-1.75-.02-.09-.04-.19-.06-.28-1.91-8.96-5.01-18.42-8.87-27.44,2.87-5.5,4.53-16.26,3.02-19.26-2.44,3.88-7.26,6.43-9.63,5.62-2.74-5.02-5.75-9.3-8.87-12.98h0c-2.12-2.5-4.28-4.73-6.45-6.72-.08-.08-.16-.15-.25-.22-.44-.4-.87-.78-1.3-1.16-.12-.11-.25-.21-.37-.32-.39-.34-.78-.66-1.18-.99-.15-.12-.29-.24-.44-.36-.38-.31-.76-.61-1.14-.9-.14-.11-.28-.22-.42-.33-.48-.37-.96-.73-1.44-1.08-.03-.02-.05-.04-.08-.06,0,0-.03-1.9,.04-4.94,.12-5.11,.52-13.41,1.84-21.22,.19-1.1,.39-2.18,.61-3.25-4.01,3.53-7.4,7.83-10.43,12.85-.49,.81-.97,1.64-1.44,2.48-.19,.34-.38,.66-.56,1-.33-1.97-.54-3.98-.66-6-1.08-18.96,6.62-39.45,11.97-46.44-.25,.08-.51,.16-.76,.24-3.83,1.26-8.08,3.32-10.67,5.98,2.41-10.63,6.26-19.54,10.89-27.13,.41-.68,.84-1.34,1.26-2,.64-.99,1.3-1.96,1.96-2.9,5.9-8.35,12.69-14.93,19.25-20.36-.67-.18-1.34-.35-2.01-.52-1.24-.32-2.49-.65-3.73-.96-.65-.17-1.31-.33-1.96-.5,9.27-6.55,19.45-11.38,29.99-14.5,3.16-.94,6.35-1.72,9.56-2.34,6.41-1.25,12.89-1.88,19.31-1.89,13.9-.02,27.52,2.89,39.59,8.75h0s.05,.05,.08,.09c0,.01,.02,.03,.03,.05,.03,.04,.05,.09,.08,.15,.01,.02,.02,.04,.03,.06,.04,.09,.08,.19,.13,.3,0,.02,.02,.05,.03,.07,.04,.1,.08,.21,.12,.32,.02,.04,.03,.09,.05,.14,.04,.12,.09,.25,.13,.39,.01,.03,.02,.06,.03,.1,.05,.17,.11,.36,.17,.55,.02,.05,.03,.11,.05,.17,.05,.15,.09,.31,.14,.48,.02,.06,.04,.13,.05,.19,.06,.22,.12,.45,.19,.7,1.07,4.14,2.23,10.75,1.41,14.95-4.43-.53-9.13-.64-13.8-.44-.06,0-.12,0-.18,0-1.61,.08-3.22,.19-4.82,.34-.07,0-.14,.01-.2,.02-.38,.04-.76,.07-1.14,.12h0c-1.18,.13-2.34,.27-3.49,.44-.1,.01-.2,.03-.31,.04-.34,.05-.67,.1-1,.15-.08,.01-.17,.03-.25,.04-.73,.12-1.45,.24-2.16,.37,0,0,0,0,0,0-.3,.05-.59,.11-.88,.17-.15,.03-.3,.06-.46,.09-.27,.05-.54,.11-.81,.16-.17,.04-.33,.07-.5,.11-.44,.1-.87,.19-1.3,.29-.19,.04-.39,.09-.58,.13-.22,.05-.44,.11-.66,.16-.2,.05-.4,.1-.6,.15-.21,.05-.42,.11-.63,.16-.22,.06-.44,.12-.65,.18-.18,.05-.36,.1-.54,.15-.37,.11-.73,.21-1.09,.32-.15,.05-.29,.09-.43,.14-.24,.08-.49,.15-.72,.23-.15,.05-.31,.1-.46,.15-.24,.08-.48,.16-.72,.25-.13,.05-.25,.09-.38,.13-.35,.13-.69,.25-1.02,.38-.08,.03-.16,.06-.24,.1-.26,.1-.52,.21-.78,.32-.11,.05-.22,.09-.33,.14-.23,.1-.46,.2-.68,.3-.09,.04-.19,.08-.28,.13-.31,.14-.61,.29-.9,.43-.03,.02-.06,.03-.09,.05-.26,.13-.51,.26-.75,.4-.08,.04-.16,.09-.24,.14-.2,.11-.39,.22-.58,.34-.07,.05-.15,.09-.22,.13-.25,.15-.49,.31-.72,.47,.07,.56,.14,1.11,.21,1.65,.55,4.36,1.09,8.12,4.81,14.42,.34,.58,.7,1.17,1.1,1.8-.34,.03-.66,.05-.98,.07-3.38,.22-5.61,.03-8.52-1.2-1.06-.45-2.21-1.04-3.54-1.79,.06,.38,.13,.75,.22,1.13,.02,.11,.06,.22,.08,.33,.06,.26,.13,.53,.2,.79,.04,.14,.09,.28,.13,.43,.07,.23,.14,.46,.22,.69,.05,.16,.11,.31,.17,.47,.08,.22,.15,.43,.24,.65,.06,.16,.13,.33,.2,.49,.08,.21,.17,.41,.26,.62,.07,.17,.15,.34,.23,.5,.09,.2,.18,.4,.28,.61,.08,.17,.17,.34,.25,.52,.1,.2,.2,.39,.3,.59,.09,.18,.19,.35,.28,.52,.1,.19,.21,.39,.32,.58,.1,.18,.2,.36,.3,.53,.11,.19,.22,.38,.33,.57,.11,.18,.22,.36,.33,.54,.11,.18,.22,.37,.34,.55,.12,.19,.23,.37,.35,.56,.11,.18,.23,.36,.34,.53,.12,.19,.25,.38,.38,.57,.11,.17,.23,.34,.34,.51,.13,.2,.27,.4,.41,.6,.11,.16,.22,.31,.32,.47,.15,.21,.3,.43,.45,.64,.09,.13,.19,.27,.28,.4,.17,.24,.34,.48,.51,.72,.07,.09,.14,.19,.2,.28,.2,.28,.41,.57,.62,.85,0,0,0,0,0,0,.2,.27,.4,.55,.6,.82-.51,.1-.98,.18-1.43,.25-4.34,.67-6.2-.09-10-1.05-.05-.01-.1-.03-.15-.04-.22-.06-.46-.11-.69-.17-.09-.02-.18-.04-.27-.07-.3-.07-.62-.14-.94-.22-.02,0-.05-.01-.07-.02,0,0,0,.02,0,.03,.05,.37,.12,.75,.2,1.14,.02,.12,.05,.24,.08,.36,.07,.31,.14,.61,.22,.93,.03,.11,.06,.22,.09,.33,.12,.42,.24,.85,.38,1.28,.01,.03,.02,.06,.03,.09,.13,.41,.28,.82,.44,1.24,.04,.11,.08,.21,.12,.31,.15,.39,.3,.78,.47,1.18,.03,.06,.05,.13,.08,.19,.2,.48,.42,.96,.65,1.45,0,.01,0,.02,.01,.03,.22,.47,.45,.94,.69,1.41,.04,.07,.07,.14,.11,.21,4.35,8.52,11.89,17.69,19.16,22.5,1.58-7.49,9.83-11.43,9.83-11.43,0,7.12,2.62,13.87,5.22,18.63,.03,.06,.06,.11,.09,.17,.31,.57,.63,1.11,.93,1.61,.03,.06,.07,.11,.1,.17,.09,.14,.17,.28,.26,.42,.04,.07,.08,.13,.12,.2,.08,.13,.17,.26,.25,.39,.04,.06,.08,.13,.12,.19,.08,.12,.16,.25,.24,.36,.04,.06,.08,.11,.11,.17,.08,.12,.16,.23,.24,.35,.03,.05,.06,.09,.1,.14,.25,.35,.49,.68,.72,.97,.05,.06,.1,.12,.14,.18,.05,.06,.1,.12,.15,.18,.05,.06,.1,.12,.15,.18,.04,.05,.09,.1,.13,.15,.05,.06,.1,.11,.15,.17,.04,.04,.07,.08,.11,.12,.05,.05,.1,.1,.14,.15,.03,.03,.06,.07,.09,.09,.05,.05,.09,.09,.14,.14,.02,.02,.04,.04,.07,.06,.06,.06,.12,.11,.18,.15-.53-7.48,9.71-16.64,9.72-16.64-1.2,8.84,.7,19.78,8.14,24.28,12.26,5.5,27.33,12.12,34.8,21.48-4.23,1.46-7.53,4.23-10.03,8.29,9.29,2.11,16.94,5.05,26.41,11.54,2.58,13.82-3.22,30.28-13.59,43.85,.01-8.92-2.19-13.57-5.79-18.71-5.19,15.6-10.62,26.91-26.89,38.89-1.33,.98-2.73,1.97-4.22,2.96,1.29-4.08,1.02-12,.21-17.83-.04-.27-.08-.54-.12-.8-.05-.32-.1-.63-.15-.94-.42-2.43-.94-4.3-1.46-5.03-2.23,6.5-4.68,12.13-7.6,17.24-6.78,11.86-16.12,20.94-31.23,31.59,.42-7.59,.1-14.1-.85-19.86-2-12.09-6.78-20.83-13.28-29.09,0,0-3.48,1.62-5.33,5.52Z"/>
    <path class="cls-1" d="M313.81,49.14l18.01-.04c3.27,0,6.35-1.52,8.36-4.11l.94-1.21h-5.27c-4.42,0-8-3.6-7.97-8.03h0c-7.26,2.75-11.94,7.21-14.06,13.39Z"/>
    <path class="cls-1" d="M362.41,42.2l5.74-6.65-14.11,.18c-1.19,.02-2.32,.55-3.09,1.45l-5.64,6.62,14.02-.18c1.18-.02,2.3-.54,3.07-1.43Z"/>
    <path class="cls-1" d="M372.52,30.5l5.75-6.66-14.3,.22c-1.19,.02-2.31,.55-3.08,1.45l-5.61,6.6,14.17-.18c1.18-.02,2.3-.54,3.07-1.43Z"/>
    <path class="cls-1" d="M390.63,10.14c0-6.13-5.44-10.99-11.76-10.02-3.93,.61-7.17,3.58-8.18,7.42-.58,2.19-.38,4.27,.3,6.11l-5.77,6.78,14.17-.22c.37,.04,.73,.06,1.11,.06,.25,0,.5-.02,.75-.04l-.76,30.15c0,8.07-3.02,15.44-8,21.03-8.48,.11-12.87-6.95-12.87-13.84h-8.26v28.84s0,.03,0,.05v5.66h0c21.92-1.31,39.29-19.5,39.29-41.74V10.14Zm-10.14,3.75c-2.07,0-3.75-1.68-3.75-3.75s1.68-3.75,3.75-3.75,3.75,1.68,3.75,3.75-1.68,3.75-3.75,3.75Z"/>
    <path class="cls-1" d="M50.45,44.99c2,2.58,5.09,4.1,8.36,4.11l18.01,.04c-2.12-6.17-6.8-10.63-14.06-13.39h0c.03,4.42-3.55,8.03-7.97,8.03h-5.27l.94,1.21Z"/>
    <path class="cls-1" d="M28.22,42.2c.77,.89,1.89,1.42,3.07,1.43l14.02,.18-5.64-6.62c-.77-.91-1.9-1.44-3.09-1.45l-14.11-.18,5.74,6.65Z"/>
    <path class="cls-1" d="M18.11,30.5c.77,.89,1.89,1.42,3.07,1.43l14.17,.18-5.61-6.6c-.77-.91-1.89-1.43-3.08-1.45l-14.3-.22,5.75,6.66Z"/>
    <g>
      <path class="cls-1" d="M39.29,57.59h-8.26c0,6.89-4.39,13.95-12.88,13.84,0,0-8-11.4-8-21.03l-.76-30.15c.25,.02,.5,.04,.75,.04,.38,0,.74-.02,1.11-.06l14.17,.22-5.77-6.78c.68-1.84,.88-3.92,.3-6.11C18.93,3.7,15.69,.73,11.76,.13,5.44-.85,0,4.01,0,10.14V50.4C0,72.64,17.37,90.83,39.29,92.14h0s0,0,0,0V57.59ZM6.39,10.14c0-2.07,1.68-3.75,3.75-3.75s3.75,1.68,3.75,3.75-1.68,3.75-3.75,3.75-3.75-1.68-3.75-3.75Z"/>
      <path class="cls-1" d="M10.14,0C4.54,0,0,4.54,0,10.14V50.4c0,22.24,17.37,40.43,39.29,41.74h0s0,0,0,0V57.59h-8.26c0,6.84-4.32,13.84-12.68,13.84-.07,0-.13,0-.2,0,0,0-8-11.4-8-21.03l-.76-30.15c.25,.02,.5,.04,.75,.04,.38,0,.74-.02,1.11-.06l14.17,.22-5.77-6.78c.68-1.84,.88-3.92,.3-6.11C18.93,3.7,15.69,.73,11.76,.13,11.21,.04,10.67,0,10.14,0h0Zm0,13.9c-2.07,0-3.75-1.68-3.75-3.75s1.68-3.75,3.75-3.75,3.75,1.68,3.75,3.75-1.68,3.75-3.75,3.75h0Z"/>
    </g>
  </g>
  <path class="cls-1" d="M351.14,393.48v6.07l20.47,24.14h0c-2.84,0-5.53-1.24-7.37-3.4l-13.88-16.29-6.78,3.75,11.78,13.58c5.01,5.78,12.29,9.1,19.94,9.1h7.89s-32.04-36.96-32.04-36.96Z"/>
  <path class="cls-1" d="M39.49,393.48v6.07s-20.47,24.14-20.47,24.14h0c2.84,0,5.53-1.24,7.37-3.4l13.88-16.29,6.78,3.75-11.78,13.58c-5.01,5.78-12.29,9.1-19.94,9.1H7.45s32.04-36.96,32.04-36.96Z"/>
</svg>